<?xml version="1.0" encoding="UTF-8" standalone="no"?>
<svg
   xmlns:dc="http://purl.org/dc/elements/1.1/"
   xmlns:cc="http://creativecommons.org/ns#"
   xmlns:rdf="http://www.w3.org/1999/02/22-rdf-syntax-ns#"
   xmlns:svg="http://www.w3.org/2000/svg"
   xmlns="http://www.w3.org/2000/svg"
   viewBox="0 0 10965.333 3296"
   height="32906"
   width="100965.333"
   xml:space="preserve"
   id="svg2"
   version="1.1"><metadata
     id="metadata8"><rdf:RDF><cc:Work
         rdf:about=""><dc:format>image/svg+xml</dc:format><dc:type
           rdf:resource="http://purl.org/dc/dcmitype/StillImage" /></cc:Work></rdf:RDF></metadata><defs
     id="defs6"><clipPath
       id="clipPath18"
       clipPathUnits="userSpaceOnUse"><path
         id="path16"
         d="M 0,2472 H 8224 V 0 H 0 Z" /></clipPath></defs><g
     transform="matrix(1.3333333,0,0,-1.3333333,0,3296)"
     id="g10"><g
       id="g12"><g
         clip-path="url(#clipPath18)"
         id="g14"><g
           transform="translate(2834.8425,1669.8899)"
           id="g20"><path
             id="path22"
             style="fill:#000000;fill-opacity:1;fill-rule:nonzero;stroke:none"
             d="m 0,0 v 15.998 c -222.327,0 -405.415,-167.977 -429.289,-383.94 h -42.637 l 47.992,-87.986 47.993,87.986 h -37.254 C -389.4,-160.833 -213.482,0 0,0" /></g><g
           transform="translate(3263.7888,1277.7662)"
           id="g24"><path
             id="path26"
             style="fill:#000000;fill-opacity:1;fill-rule:nonzero;stroke:none"
             d="m 0,0 -54.349,-84.208 36.442,-2.694 c -30.403,-199.76 -202.786,-352.844 -411.039,-352.844 v -15.998 c 216.694,0 395.991,159.609 427.037,367.659 l 43.284,-3.2 z" /></g><g
           transform="translate(2840.9802,1346.4276)"
           id="g28"><path
             id="path30"
             style="fill:#000000;fill-opacity:1;fill-rule:nonzero;stroke:none"
             d="m 0,0 c 11.097,0 22.011,-1.792 32.44,-5.325 l 0.754,-0.256 5.909,11.962 -0.964,0.341 C 25.891,11.059 13.059,13.257 0,13.257 c -30.556,0 -59.32,-11.933 -80.984,-33.597 -21.665,-21.665 -33.597,-50.426 -33.597,-80.983 0,-12.262 1.943,-24.35 5.775,-35.927 l 0.342,-1.031 11.84,6.428 -0.22,0.711 c -2.972,9.633 -4.48,19.666 -4.48,29.819 0,27.02 10.552,52.453 29.711,71.612 C -52.453,-10.552 -27.021,0 0,0" /></g><g
           transform="translate(2717.3591,1245.1047)"
           id="g32"><path
             id="path34"
             style="fill:#000000;fill-opacity:1;fill-rule:nonzero;stroke:none"
             d="m 0,0 c 0,68.165 55.456,123.621 123.621,123.621 14.55,0 28.806,-2.517 42.368,-7.481 l 0.765,-0.28 5.897,11.936 -0.938,0.353 c -15.384,5.792 -31.565,8.729 -48.092,8.729 h -10e-4 c -36.5,0 -70.861,-14.255 -96.742,-40.135 C 0.996,70.86 -13.257,36.504 -13.257,0 c 0,-16.042 2.766,-31.765 8.22,-46.734 l 0.361,-0.99 11.785,6.398 -0.253,0.729 C 2.306,-27.55 0,-13.891 0,0" /></g><g
           transform="translate(2851.9802,1134.5497)"
           id="g36"><path
             id="path38"
             style="fill:#000000;fill-opacity:1;fill-rule:nonzero;stroke:none"
             d="m 0,0 c -10.809,0 -21.467,1.708 -31.675,5.076 l -0.749,0.247 -5.919,-11.981 0.973,-0.336 c 12.013,-4.156 24.585,-6.263 37.37,-6.263 30.555,0 59.319,11.933 80.983,33.597 21.665,21.666 33.597,50.426 33.597,80.983 0,12.086 -1.891,24.012 -5.619,35.448 l -0.338,1.036 -11.852,-6.434 0.214,-0.708 c 2.879,-9.495 4.338,-19.367 4.338,-29.342 C 101.323,45.453 55.869,0 0,0" /></g><g
           transform="translate(2980.804,1282.1345)"
           id="g40"><path
             id="path42"
             style="fill:#000000;fill-opacity:1;fill-rule:nonzero;stroke:none"
             d="m 0,0 -0.358,0.995 -11.786,-6.399 0.25,-0.727 c 4.44,-12.898 6.69,-26.4 6.69,-40.131 0,-68.165 -55.455,-123.621 -123.62,-123.621 -14.26,0 -28.26,2.427 -41.61,7.213 l -0.762,0.273 -5.906,-11.953 0.946,-0.35 c 15.148,-5.601 31.073,-8.44 47.332,-8.44 75.469,0 136.877,61.408 136.878,136.878 C 8.054,-30.403 5.344,-14.839 0,0" /></g><g
           transform="translate(2068.2075,1538.9686)"
           id="g44"><path
             id="path46"
             style="fill:#000000;fill-opacity:1;fill-rule:nonzero;stroke:none"
             d="m 0,0 c -76.59,75.044 -178.546,112.568 -305.872,112.568 h -55.56 v -0.035 h -172.683 c -24.427,0 -44.229,-19.802 -44.229,-44.229 V -2.185 c 0,-24.427 19.802,-44.229 44.229,-44.229 l 145.579,0.065 27.189,0.048 h 37.823 c 98.772,0 171.117,-24.117 217.033,-72.344 38.582,-40.128 57.876,-95.783 57.876,-166.971 0,-68.681 -23.25,-124.821 -69.74,-168.417 -47.458,-44.18 -109.484,-66.268 -186.07,-66.268 h -58.165 v -0.189 h -171.525 c -24.427,0 -44.229,-19.802 -44.229,-44.229 v -70.49 c 0,-24.426 19.802,-44.228 44.229,-44.228 h 172.768 v 0.268 h 62.709 c 136.008,0 241.147,42.25 315.422,126.747 63.084,72.729 94.627,162.437 94.627,269.122 C 111.411,-167.165 74.271,-72.733 0,0" /></g><g
           transform="translate(4819.8623,1492.6681)"
           id="g48"><path
             id="path50"
             style="fill:#000000;fill-opacity:1;fill-rule:nonzero;stroke:none"
             d="m 0,0 h -449.163 c -25.64,0 -46.425,20.785 -46.425,46.425 v 66.018 c 0,25.64 20.785,46.426 46.425,46.426 H 0 c 25.64,0 46.425,-20.786 46.425,-46.426 V 46.425 C 46.425,20.785 25.64,0 0,0" /></g><g
           transform="translate(4796.5269,1174.9321)"
           id="g52"><path
             id="path54"
             style="fill:#000000;fill-opacity:1;fill-rule:nonzero;stroke:none"
             d="m 0,0 h -424.818 c -26.198,0 -47.435,20.785 -47.435,46.425 v 66.018 c 0,25.64 21.237,46.425 47.435,46.425 H 0 c 26.197,0 47.435,-20.785 47.435,-46.425 V 46.425 C 47.435,20.785 26.197,0 0,0" /></g><g
           transform="translate(4819.8623,859.7999)"
           id="g56"><path
             id="path58"
             style="fill:#000000;fill-opacity:1;fill-rule:nonzero;stroke:none"
             d="m 0,0 h -449.163 c -25.64,0 -46.425,20.785 -46.425,46.425 v 66.018 c 0,25.64 20.785,46.425 46.425,46.425 H 0 c 25.64,0 46.425,-20.785 46.425,-46.425 V 46.425 C 46.425,20.785 25.64,0 0,0" /></g><g
           transform="translate(5468.938,863.0947)"
           id="g60"><path
             id="path62"
             style="fill:#000000;fill-opacity:1;fill-rule:nonzero;stroke:none"
             d="m 0,0 c 0,-13.813 -12.612,-24.134 -26.174,-21.515 -90.183,17.418 -165.572,57.828 -226.162,121.239 -73.503,76.78 -110.254,173.237 -110.254,289.377 0,107.454 33.18,200.249 99.546,278.381 61.017,72.012 140.054,117.283 237.113,135.806 C -12.461,805.858 0,795.439 0,781.727 V 658.993 c 0,-9.574 -6.229,-18 -15.352,-20.905 -54.392,-17.327 -98.275,-46.209 -131.651,-86.646 -36.272,-45.143 -54.403,-99.257 -54.403,-162.341 0,-60.191 17.746,-112.378 53.245,-156.554 32.744,-41.243 77.02,-70.87 132.824,-88.888 C -6.229,140.718 0,132.319 0,122.749 Z" /></g><g
           transform="translate(5812.2437,1500.3248)"
           id="g64"><path
             id="path66"
             style="fill:#000000;fill-opacity:1;fill-rule:nonzero;stroke:none"
             d="m 0,0 -93.027,-75.611 c -9.116,-7.409 -22.452,-6.306 -30.24,2.487 -15.505,17.506 -31.185,31.42 -47.034,41.739 -18.237,11.497 -41.583,21.809 -70.033,30.932 -9.112,2.923 -15.333,11.341 -15.333,20.91 v 125.389 c 0,13.733 12.48,24.074 25.98,21.556 C -136.585,150.037 -59.035,104.612 2.964,31.123 10.862,21.762 9.503,7.724 0,0" /></g><g
           transform="translate(5813.3667,1009.0756)"
           id="g68"><path
             id="path70"
             style="fill:#000000;fill-opacity:1;fill-rule:nonzero;stroke:none"
             d="m 0,0 c 9.983,-7.789 11.281,-22.369 2.896,-31.857 -34.397,-38.922 -66.075,-66.967 -95.03,-84.141 -34.416,-20.648 -80.445,-37.133 -138.084,-49.455 -13.67,-2.922 -26.573,7.451 -26.573,21.43 v 121.629 c 0,9.76 6.452,18.362 15.832,21.06 29.343,8.439 50.109,16.035 62.3,22.791 17.94,10.14 36.134,26.274 54.582,48.402 7.583,9.096 21.008,10.563 30.345,3.278 z" /></g><g
           transform="translate(4035.55,1651.5367)"
           id="g72"><path
             id="path74"
             style="fill:#000000;fill-opacity:1;fill-rule:nonzero;stroke:none"
             d="m 0,0 h -325.909 v -110.607 h -0.13 v -636.51 c 0,-24.643 19.977,-44.62 44.62,-44.62 h 71.944 c 24.643,0 44.62,19.977 44.62,44.62 v 588.248 H 0 c 24.407,0 44.193,19.786 44.193,44.193 v 70.483 C 44.193,-19.786 24.407,0 0,0" /></g><g
           transform="translate(3600.0784,1651.5367)"
           id="g76"><path
             id="path78"
             style="fill:#000000;fill-opacity:1;fill-rule:nonzero;stroke:none"
             d="m 0,0 h -65.459 c -30.739,0 -55.659,-18.16 -55.659,-40.561 v -77.747 c 0,-22.401 24.92,-40.561 55.659,-40.561 H 0 c 30.74,0 55.659,18.16 55.659,40.561 v 77.747 C 55.659,-18.16 30.74,0 0,0" /></g><g
           transform="translate(6574.1108,1613.3481)"
           id="g80"><path
             id="path82"
             style="fill:#000000;fill-opacity:1;fill-rule:nonzero;stroke:none"
             d="m 0,0 v -240.202 c 0,-21.091 -17.098,-38.189 -38.188,-38.189 h -104.1 v -1.349 h -347.926 c -21.091,0 -38.189,-17.098 -38.189,-38.189 V -715.36 c 0,-21.091 17.098,-38.188 38.189,-38.188 h 84.806 c 21.091,0 38.189,17.097 38.189,38.188 v 239.913 c 0,21.091 17.097,38.188 38.188,38.188 h 290.843 c 21.09,0 38.188,-17.097 38.188,-38.188 L 0,-715.36 c 0,-21.091 17.098,-38.188 38.188,-38.188 h 83.649 c 21.091,0 38.188,17.097 38.188,38.188 V 0 c 0,21.091 -17.097,38.189 -38.188,38.189 H 38.188 C 17.098,38.189 0,21.091 0,0" /></g><g
           transform="translate(6206.8916,1428.4644)"
           id="g84"><path
             id="path86"
             style="fill:#000000;fill-opacity:1;fill-rule:nonzero;stroke:none"
             d="m 0,0 v 184.884 c 0,21.091 -17.098,38.188 -38.188,38.188 h -84.807 c -21.091,0 -38.189,-17.097 -38.189,-38.188 V 0 c 0,-21.091 17.098,-38.188 38.189,-38.188 h 84.807 C -17.098,-38.188 0,-21.091 0,0" /></g><g
           transform="translate(2163.6895,614.5258)"
           id="g88"><path
             id="path90"
             style="fill:#000000;fill-opacity:1;fill-rule:nonzero;stroke:none"
             d="m 0,0 c -2.055,-2.466 -0.792,-6.239 2.33,-6.984 13.377,-3.19 25.467,-6.201 37.684,-8.548 3.677,-0.706 8.517,0.44 11.761,2.45 C 61.877,-6.824 71.396,0.367 81.272,7 c 132.142,88.749 261.384,181.448 383.929,283.182 43.788,36.352 82.865,77.008 109.624,128.075 10.587,20.205 20.352,40.906 32.024,60.467 51.089,85.618 121.353,152.992 206.185,203.59 58.201,34.714 109.71,75.952 154.355,126.251 130.159,146.646 260.049,293.532 390.007,440.358 0.066,0.079 0.133,0.16 0.199,0.239 0.014,0.019 0.029,0.037 0.043,0.056 2.094,2.707 0.316,6.666 -3.096,6.943 -8.309,0.676 -16.024,1.249 -23.687,2.237 -8.629,1.113 -15.792,-1.002 -23.229,-5.718 -51.944,-32.939 -104.411,-65.053 -156.23,-98.183 C 1066.059,1099.938 982.698,1042.594 906.333,975.715 851.196,927.427 802.722,873.752 768.616,808.041 752.797,777.562 736.956,746.847 718.072,718.256 674.416,652.16 615.056,602.222 547.474,562.119 479.05,521.516 415.437,475.134 362.682,415.093 251.345,288.378 140.229,161.469 29.094,34.576 19.441,23.554 10.168,12.201 0,0" /></g><g
           transform="translate(2812.4153,1190.4308)"
           id="g92"><path
             id="path94"
             style="fill:#ffffff;fill-opacity:1;fill-rule:nonzero;stroke:none"
             d="m 0,0 c -8.97,0.214 -15.854,7.637 -15.591,16.811 0.256,8.9 6.836,15.229 15.865,15.261 9.2,0.033 16.367,-7.079 16.247,-16.123 C 16.402,6.974 8.957,-0.213 0,0" /></g><g
           transform="translate(2850.8975,1261.7535)"
           id="g96"><path
             id="path98"
             style="fill:#ffffff;fill-opacity:1;fill-rule:nonzero;stroke:none"
             d="M 0,0 C 0.146,9.523 6.911,16.026 16.416,15.78 24.965,15.558 32.081,8.456 32.203,0.023 32.332,-8.844 24.903,-16.371 16.019,-16.376 6.999,-16.382 -0.139,-9.084 0,0" /></g></g></g></g></svg>
